<svg width="49" height="44" viewBox="0 0 49 44" fill="none" xmlns="http://www.w3.org/2000/svg">
<path d="M6.5 9C6.5 7.344 7.844 6 9.5 6C11.156 6 12.5 7.344 12.5 9C12.5 10.656 11.156 12 9.5 12C7.844 12 6.5 10.656 6.5 9ZM17.5 12C19.156 12 20.5 10.656 20.5 9C20.5 7.344 19.156 6 17.5 6C15.844 6 14.5 7.344 14.5 9C14.5 10.656 15.844 12 17.5 12ZM48.5 10V34C48.5 39.514 44.014 44 38.5 44H10.5C4.986 44 0.5 39.514 0.5 34V10C0.5 4.486 4.986 0 10.5 0H38.5C44.014 0 48.5 4.486 48.5 10ZM4.5 10V14H44.5V10C44.5 6.692 41.808 4 38.5 4H10.5C7.192 4 4.5 6.692 4.5 10ZM44.5 34V18H4.5V34C4.5 37.308 7.192 40 10.5 40H38.5C41.808 40 44.5 37.308 44.5 34ZM20.914 24.414C21.696 23.632 21.696 22.368 20.914 21.586C20.132 20.804 18.868 20.804 18.086 21.586L13.724 25.948C11.98 27.692 11.98 30.528 13.762 32.308L18.124 36.45C18.922 37.212 20.19 37.18 20.95 36.378C21.712 35.578 21.678 34.312 20.878 33.552L16.554 29.444C16.37 29.26 16.37 28.96 16.554 28.776L20.916 24.414H20.914ZM30.914 21.586C30.132 20.804 28.868 20.804 28.086 21.586C27.304 22.368 27.304 23.632 28.086 24.414L32.448 28.776C32.632 28.96 32.632 29.26 32.47 29.422L28.152 33.608C27.36 34.376 27.34 35.644 28.11 36.436C28.88 37.23 30.146 37.248 30.938 36.478L35.278 32.27C37.022 30.526 37.022 27.69 35.278 25.946L30.916 21.584L30.914 21.586Z" fill="white" fill-opacity="0.85"/>
</svg>
